PathFileType	4	(X/Y/Z)	E:/New_biomech_experiments/27_06_2024_Shreyas_Arm26_updated ground/Afternoon session/Neeraj_PP_27_6_24_elbow_flexion_t01.trc	
DataRate	CameraRate	NumFrames	NumMarkers	Units	OrigDataRate	OrigDataStartFrame	OrigNumFrames	
120.00	120.00	82	4	m	120.00	1	6524	
Frame#	Time	MarkerSet_r_acromion			MarkerSet_r_humerus_epicondyle			MarkerSet_r_radius_styloid			MarkerSet_RHAND			
		X1	Y1	Z1	X2	Y2	Z2	X3	Y3	Z3	X4	Y4	Z4	

1	0.000	-0.03023	0.79550	0.20795	-0.04091	0.44879	0.24127	0.06845	0.18809	0.29021	0.11282	0.10285	0.25898 
2	0.008	-0.03032	0.79545	0.20805	-0.04085	0.44874	0.24133	0.06856	0.18810	0.29023	0.11273	0.10275	0.25906 
3	0.017	-0.03039	0.79536	0.20817	-0.04082	0.44868	0.24134	0.06867	0.18811	0.29025	0.11263	0.10264	0.25914 
4	0.025	-0.03044	0.79525	0.20829	-0.04082	0.44861	0.24131	0.06878	0.18811	0.29027	0.11250	0.10251	0.25924 
5	0.033	-0.03048	0.79510	0.20843	-0.04083	0.44854	0.24126	0.06889	0.18812	0.29028	0.11232	0.10236	0.25934 
6	0.042	-0.03047	0.79491	0.20857	-0.04084	0.44848	0.24122	0.06902	0.18813	0.29030	0.11205	0.10217	0.25945 
7	0.050	-0.03044	0.79471	0.20871	-0.04084	0.44841	0.24118	0.06914	0.18814	0.29031	0.11174	0.10196	0.25956 
8	0.058	-0.03038	0.79452	0.20884	-0.04085	0.44835	0.24115	0.06927	0.18815	0.29032	0.11150	0.10180	0.25965 
9	0.067	-0.03031	0.79435	0.20896	-0.04084	0.44830	0.24112	0.06941	0.18817	0.29032	0.11139	0.10170	0.25971 
10	0.075	-0.03023	0.79423	0.20905	-0.04082	0.44827	0.24110	0.06955	0.18819	0.29032	0.11136	0.10164	0.25975 
11	0.083	-0.03014	0.79414	0.20912	-0.04079	0.44824	0.24108	0.06970	0.18822	0.29031	0.11140	0.10162	0.25976 
12	0.092	-0.03004	0.79408	0.20918	-0.04074	0.44823	0.24108	0.06985	0.18826	0.29030	0.11150	0.10164	0.25977 
13	0.100	-0.02992	0.79403	0.20921	-0.04067	0.44823	0.24107	0.07001	0.18830	0.29028	0.11163	0.10167	0.25977 
14	0.108	-0.02979	0.79401	0.20922	-0.04059	0.44825	0.24107	0.07016	0.18834	0.29027	0.11181	0.10173	0.25976 
15	0.117	-0.02967	0.79403	0.20922	-0.04049	0.44827	0.24106	0.07032	0.18840	0.29025	0.11202	0.10181	0.25976 
16	0.125	-0.02954	0.79407	0.20920	-0.04038	0.44831	0.24105	0.07047	0.18846	0.29024	0.11227	0.10191	0.25977 
17	0.133	-0.02940	0.79412	0.20918	-0.04026	0.44835	0.24104	0.07062	0.18852	0.29024	0.11259	0.10203	0.25980 
18	0.142	-0.02924	0.79417	0.20914	-0.04014	0.44840	0.24103	0.07076	0.18859	0.29024	0.11294	0.10217	0.25984 
19	0.150	-0.02908	0.79421	0.20908	-0.04001	0.44845	0.24101	0.07090	0.18866	0.29025	0.11325	0.10230	0.25989 
20	0.158	-0.02890	0.79426	0.20902	-0.03987	0.44851	0.24100	0.07105	0.18873	0.29027	0.11351	0.10241	0.25994 
21	0.167	-0.02871	0.79430	0.20894	-0.03973	0.44857	0.24098	0.07119	0.18880	0.29029	0.11372	0.10250	0.26000 
22	0.175	-0.02851	0.79435	0.20885	-0.03958	0.44863	0.24097	0.07133	0.18888	0.29033	0.11391	0.10258	0.26005 
23	0.183	-0.02829	0.79439	0.20875	-0.03942	0.44869	0.24096	0.07148	0.18895	0.29036	0.11407	0.10266	0.26011 
24	0.192	-0.02807	0.79444	0.20864	-0.03926	0.44876	0.24096	0.07163	0.18903	0.29040	0.11422	0.10273	0.26017 
25	0.200	-0.02784	0.79450	0.20853	-0.03909	0.44883	0.24096	0.07178	0.18911	0.29044	0.11437	0.10280	0.26023 
26	0.208	-0.02761	0.79455	0.20842	-0.03892	0.44890	0.24096	0.07194	0.18919	0.29048	0.11451	0.10287	0.26029 
27	0.217	-0.02737	0.79461	0.20830	-0.03873	0.44897	0.24097	0.07210	0.18927	0.29052	0.11465	0.10293	0.26034 
28	0.225	-0.02712	0.79466	0.20818	-0.03854	0.44904	0.24098	0.07227	0.18934	0.29056	0.11479	0.10299	0.26040 
29	0.233	-0.02686	0.79472	0.20806	-0.03834	0.44911	0.24100	0.07244	0.18942	0.29060	0.11493	0.10305	0.26045 
30	0.242	-0.02660	0.79477	0.20795	-0.03814	0.44918	0.24102	0.07261	0.18949	0.29063	0.11507	0.10310	0.26049 
31	0.250	-0.02634	0.79483	0.20783	-0.03792	0.44924	0.24105	0.07280	0.18955	0.29065	0.11521	0.10315	0.26052 
32	0.258	-0.02608	0.79488	0.20771	-0.03770	0.44930	0.24109	0.07298	0.18962	0.29067	0.11535	0.10319	0.26055 
33	0.267	-0.02583	0.79492	0.20759	-0.03746	0.44936	0.24115	0.07317	0.18969	0.29068	0.11549	0.10324	0.26056 
34	0.275	-0.02559	0.79496	0.20748	-0.03721	0.44943	0.24122	0.07337	0.18975	0.29069	0.11564	0.10328	0.26057 
35	0.283	-0.02536	0.79500	0.20737	-0.03696	0.44949	0.24130	0.07356	0.18981	0.29069	0.11579	0.10331	0.26057 
36	0.292	-0.02513	0.79504	0.20726	-0.03671	0.44954	0.24136	0.07377	0.18987	0.29068	0.11595	0.10334	0.26056 
37	0.300	-0.02491	0.79506	0.20717	-0.03648	0.44959	0.24140	0.07397	0.18993	0.29067	0.11611	0.10337	0.26054 
38	0.308	-0.02469	0.79509	0.20708	-0.03627	0.44962	0.24141	0.07418	0.18998	0.29065	0.11628	0.10340	0.26051 
39	0.317	-0.02448	0.79511	0.20699	-0.03606	0.44965	0.24140	0.07439	0.19002	0.29062	0.11645	0.10342	0.26046 
40	0.325	-0.02428	0.79513	0.20691	-0.03587	0.44967	0.24138	0.07460	0.19006	0.29058	0.11662	0.10344	0.26040 
41	0.333	-0.02409	0.79514	0.20684	-0.03568	0.44968	0.24135	0.07481	0.19009	0.29053	0.11679	0.10344	0.26033 
42	0.342	-0.02391	0.79513	0.20677	-0.03551	0.44968	0.24131	0.07503	0.19011	0.29047	0.11697	0.10344	0.26024 
43	0.350	-0.02373	0.79511	0.20671	-0.03534	0.44968	0.24127	0.07524	0.19013	0.29040	0.11714	0.10344	0.26013 
44	0.358	-0.02355	0.79509	0.20665	-0.03517	0.44966	0.24121	0.07546	0.19014	0.29032	0.11731	0.10342	0.26001 
45	0.367	-0.02337	0.79508	0.20659	-0.03501	0.44964	0.24115	0.07567	0.19014	0.29023	0.11748	0.10340	0.25988 
46	0.375	-0.02320	0.79505	0.20653	-0.03486	0.44962	0.24109	0.07588	0.19014	0.29013	0.11765	0.10338	0.25974 
47	0.383	-0.02302	0.79501	0.20648	-0.03471	0.44960	0.24103	0.07608	0.19013	0.29002	0.11782	0.10335	0.25961 
48	0.392	-0.02284	0.79495	0.20643	-0.03457	0.44957	0.24096	0.07628	0.19012	0.28991	0.11798	0.10333	0.25947 
49	0.400	-0.02265	0.79490	0.20638	-0.03443	0.44955	0.24089	0.07646	0.19011	0.28980	0.11814	0.10330	0.25934 
50	0.408	-0.02246	0.79484	0.20634	-0.03430	0.44952	0.24082	0.07664	0.19009	0.28969	0.11829	0.10328	0.25921 
51	0.417	-0.02226	0.79477	0.20629	-0.03417	0.44949	0.24075	0.07682	0.19006	0.28957	0.11843	0.10325	0.25908 
52	0.425	-0.02206	0.79469	0.20625	-0.03404	0.44946	0.24067	0.07699	0.19004	0.28944	0.11857	0.10322	0.25895 
53	0.433	-0.02185	0.79461	0.20621	-0.03391	0.44943	0.24060	0.07716	0.19001	0.28932	0.11870	0.10318	0.25881 
54	0.442	-0.02166	0.79454	0.20617	-0.03378	0.44940	0.24052	0.07732	0.18997	0.28919	0.11883	0.10314	0.25867 
55	0.450	-0.02148	0.79448	0.20612	-0.03365	0.44937	0.24045	0.07748	0.18993	0.28906	0.11895	0.10309	0.25853 
56	0.458	-0.02131	0.79445	0.20608	-0.03353	0.44934	0.24037	0.07764	0.18988	0.28893	0.11907	0.10303	0.25840 
57	0.467	-0.02116	0.79442	0.20603	-0.03341	0.44931	0.24030	0.07779	0.18983	0.28879	0.11918	0.10298	0.25826 
58	0.475	-0.02101	0.79441	0.20598	-0.03329	0.44928	0.24022	0.07793	0.18978	0.28866	0.11928	0.10293	0.25812 
59	0.483	-0.02088	0.79442	0.20594	-0.03318	0.44925	0.24015	0.07806	0.18973	0.28853	0.11938	0.10287	0.25798 
60	0.492	-0.02075	0.79444	0.20589	-0.03307	0.44922	0.24007	0.07818	0.18968	0.28840	0.11948	0.10283	0.25785 
61	0.500	-0.02064	0.79448	0.20584	-0.03297	0.44918	0.24000	0.07830	0.18964	0.28829	0.11958	0.10278	0.25773 
62	0.508	-0.02052	0.79449	0.20580	-0.03288	0.44915	0.23992	0.07840	0.18960	0.28819	0.11968	0.10274	0.25762 
63	0.517	-0.02041	0.79449	0.20575	-0.03280	0.44912	0.23985	0.07849	0.18955	0.28809	0.11977	0.10271	0.25752 
64	0.525	-0.02029	0.79448	0.20570	-0.03272	0.44909	0.23978	0.07858	0.18951	0.28800	0.11986	0.10268	0.25743 
65	0.533	-0.02017	0.79446	0.20566	-0.03264	0.44906	0.23970	0.07866	0.18947	0.28791	0.11994	0.10265	0.25734 
66	0.542	-0.02005	0.79444	0.20561	-0.03256	0.44903	0.23963	0.07873	0.18943	0.28783	0.12002	0.10262	0.25726 
67	0.550	-0.01994	0.79443	0.20556	-0.03249	0.44899	0.23956	0.07879	0.18939	0.28776	0.12009	0.10258	0.25719 
68	0.558	-0.01982	0.79439	0.20552	-0.03241	0.44897	0.23950	0.07884	0.18935	0.28769	0.12014	0.10255	0.25712 
69	0.567	-0.01971	0.79434	0.20548	-0.03233	0.44894	0.23943	0.07888	0.18931	0.28762	0.12019	0.10251	0.25705 
70	0.575	-0.01959	0.79429	0.20545	-0.03226	0.44891	0.23936	0.07890	0.18927	0.28756	0.12022	0.10247	0.25699 
71	0.583	-0.01948	0.79426	0.20540	-0.03219	0.44889	0.23929	0.07891	0.18923	0.28750	0.12024	0.10243	0.25695 
72	0.592	-0.01937	0.79425	0.20535	-0.03212	0.44887	0.23922	0.07890	0.18919	0.28745	0.12025	0.10239	0.25691 
73	0.600	-0.01927	0.79424	0.20530	-0.03207	0.44885	0.23914	0.07887	0.18915	0.28740	0.12024	0.10235	0.25687 
74	0.608	-0.01917	0.79422	0.20526	-0.03202	0.44883	0.23906	0.07882	0.18911	0.28735	0.12021	0.10231	0.25685 
75	0.617	-0.01907	0.79422	0.20521	-0.03197	0.44881	0.23898	0.07875	0.18906	0.28731	0.12016	0.10226	0.25683 
76	0.625	-0.01897	0.79422	0.20516	-0.03193	0.44880	0.23889	0.07867	0.18902	0.28728	0.12009	0.10221	0.25681 
77	0.633	-0.01887	0.79422	0.20511	-0.03189	0.44879	0.23880	0.07857	0.18897	0.28724	0.11998	0.10216	0.25679 
78	0.642	-0.01878	0.79422	0.20506	-0.03185	0.44878	0.23871	0.07847	0.18893	0.28721	0.11982	0.10209	0.25676 
79	0.650	-0.01868	0.79422	0.20502	-0.03182	0.44878	0.23862	0.07835	0.18888	0.28718	0.11961	0.10201	0.25672 
80	0.658	-0.01859	0.79422	0.20498	-0.03179	0.44878	0.23853	0.07823	0.18883	0.28715	0.11937	0.10192	0.25668 
81	0.667	-0.01851	0.79422	0.20494	-0.03176	0.44877	0.23843	0.07810	0.18878	0.28713	0.11917	0.10184	0.25663 
82	0.675	-0.01843	0.79423	0.20490	-0.03174	0.44877	0.23833	0.07796	0.18873	0.28710	0.11905	0.10179	0.25658 
